<svg xmlns="http://www.w3.org/2000/svg" viewBox="0 0 64 64" role="img" aria-label="度盘">
  <rect width="64" height="64" rx="14" fill="#1769e0"/>
  <path d="M14 23.5c0-4.1 3.4-7.5 7.5-7.5h14.8c7.6 0 13.7 6.1 13.7 13.7v4.6C50 41.9 43.9 48 36.3 48H21.5c-4.1 0-7.5-3.4-7.5-7.5v-17z" fill="#fff"/>
  <path d="M22 24h13.8c3.5 0 6.2 2.7 6.2 6.1v3.8c0 3.4-2.7 6.1-6.2 6.1H22V24z" fill="#1769e0"/>
  <path d="M28 18v28" stroke="#fff" stroke-width="5" stroke-linecap="round"/>
  <path d="M28 30h8.8c1.2 0 2.2 1 2.2 2s-1 2-2.2 2H28v-4z" fill="#fff"/>
</svg>
